<svg width="120" height="120" viewBox="0 0 120 120" fill="none" xmlns="http://www.w3.org/2000/svg">
<rect width="120" height="120" rx="12" fill="#756982" fill-opacity="0.6"/>
<rect x="28" y="56" width="64" height="22" rx="11" fill="#F2F2F5"/>
<path d="M46.425 61.782H47.899V72.001H46.425V61.782ZM39.946 62.596H41.398V65.071H43.499V62.596H44.951V69.625H39.946V62.596ZM41.398 66.204V68.448H43.499V66.204H41.398ZM52.3531 62.497C53.8711 62.497 54.9821 63.905 54.9821 66.127C54.9821 68.371 53.8711 69.779 52.3531 69.779C50.8241 69.779 49.7241 68.371 49.7241 66.127C49.7241 63.905 50.8241 62.497 52.3531 62.497ZM52.3531 63.828C51.6161 63.828 51.1211 64.631 51.1211 66.127C51.1211 67.645 51.6161 68.459 52.3531 68.459C53.1011 68.459 53.5851 67.645 53.5851 66.127C53.5851 64.631 53.1011 63.828 52.3531 63.828ZM56.6541 61.782H58.1061V72.001H56.6541V61.782ZM54.5531 65.456H57.2701V66.633H54.5531V65.456ZM61.9663 67.975H63.0663V68.316C63.0663 69.856 62.3843 71.264 60.7893 71.836L60.0743 70.769C61.4053 70.318 61.9663 69.306 61.9663 68.316V67.975ZM62.3403 67.975H63.3853V68.316C63.3853 69.306 63.8803 70.34 65.1233 70.857L64.5403 71.935C62.9233 71.33 62.3403 69.812 62.3403 68.316V67.975ZM65.6843 67.975H66.7293V68.316C66.7293 69.724 66.1243 71.308 64.5403 71.935L63.9353 70.857C65.1783 70.296 65.6843 69.218 65.6843 68.316V67.975ZM66.0253 67.975H67.1253V68.316C67.1253 69.372 67.6753 70.351 69.0173 70.769L68.3023 71.836C66.6853 71.286 66.0253 69.922 66.0253 68.316V67.975ZM66.6743 61.804H68.1483V67.557H66.6743V61.804ZM62.6043 62.321C64.1883 62.321 65.3653 63.333 65.3653 64.763C65.3653 66.182 64.1883 67.194 62.6043 67.194C61.0203 67.194 59.8323 66.182 59.8323 64.763C59.8323 63.333 61.0203 62.321 62.6043 62.321ZM62.6043 63.531C61.8343 63.531 61.2623 63.982 61.2623 64.763C61.2623 65.533 61.8343 65.984 62.6043 65.984C63.3743 65.984 63.9353 65.533 63.9353 64.763C63.9353 63.982 63.3743 63.531 62.6043 63.531ZM74.4064 61.98C76.6504 61.98 78.0914 62.739 78.0914 63.971C78.0914 65.203 76.6504 65.951 74.4064 65.951C72.1624 65.951 70.7214 65.203 70.7214 63.971C70.7214 62.739 72.1624 61.98 74.4064 61.98ZM74.4064 63.113C73.0094 63.113 72.2284 63.388 72.2284 63.971C72.2284 64.543 73.0094 64.829 74.4064 64.829C75.7924 64.829 76.5844 64.543 76.5844 63.971C76.5844 63.388 75.7924 63.113 74.4064 63.113ZM70.8644 68.393H77.9044V71.869H70.8644V68.393ZM76.4744 69.548H72.3054V70.714H76.4744V69.548ZM69.7974 66.534H79.0044V67.689H69.7974V66.534Z" fill="#756982"/>
<path fill-rule="evenodd" clip-rule="evenodd" d="M97.2308 35.8182H61.4004L49.8462 24.0253C48.581 22.7237 46.8575 21.9942 45.0612 22H22.7692C19.0307 22 16 25.0933 16 28.9091V91.3586C16.0047 95.0246 18.9152 97.9952 22.5069 98H97.6073C101.136 97.9952 103.995 95.0768 104 91.4752V42.7273C104 38.9115 100.969 35.8182 97.2308 35.8182Z" stroke="#E0DEE3" stroke-width="2" stroke-dasharray="4 4"/>
</svg>
