<svg width="40" height="40" viewBox="0 0 40 40" fill="none" xmlns="http://www.w3.org/2000/svg">
<rect width="40" height="40" rx="8" fill="#B98CE0"/>
<circle cx="20" cy="20" r="6" fill="#F2F2F5"/>
<path fill-rule="evenodd" clip-rule="evenodd" d="M24.5 20C24.5 20.2071 24.3321 20.375 24.125 20.375H20.375V24.125C20.375 24.3321 20.2071 24.5 20 24.5C19.7929 24.5 19.625 24.3321 19.625 24.125V20.375H15.875C15.6679 20.375 15.5 20.2071 15.5 20C15.5 19.7929 15.6679 19.625 15.875 19.625H19.625V15.875C19.625 15.6679 19.7929 15.5 20 15.5C20.2071 15.5 20.375 15.6679 20.375 15.875V19.625H24.125C24.3321 19.625 24.5 19.7929 24.5 20Z" fill="#B98CE0"/>
</svg>