<svg width="20" height="24" viewBox="0 0 20 24" fill="none" xmlns="http://www.w3.org/2000/svg">
<path fill-rule="evenodd" clip-rule="evenodd" d="M10 23.9443C11.2222 23.9443 12.2111 22.9554 12.2111 21.7332H7.7889C7.7889 22.9554 8.77779 23.9443 10 23.9443ZM17.7778 17.2779V10.6112C17.7778 6.889 15.1556 3.77789 11.6667 3.02233V1.72233C11.6667 0.800108 10.9222 0.0556641 10 0.0556641C9.07778 0.0556641 8.33333 0.800108 8.33333 1.72233V3.02233C4.84444 3.77789 2.22222 6.889 2.22222 10.6112V17.2779L0 19.5001V20.6112H20V19.5001L17.7778 17.2779ZM11.1111 16.1668H8.88889V13.9446H11.1111V16.1668ZM11.1111 11.7223H8.88889V7.27789H11.1111V11.7223Z" fill="#FFD230"/>
</svg>
