<svg width="215" height="223" viewBox="0 0 215 223" fill="none" xmlns="http://www.w3.org/2000/svg">
<g opacity="0.6" clip-path="url(#clip0_1219_588)">
<path d="M80.0169 8.22957C75.8327 10.0491 75.8057 15.7399 75.5399 18.7051C75.1122 23.385 75.1931 28.0537 75.1931 32.7187V217.175V217.19C75.2008 228.755 89.7378 220.077 95.7908 215.88C104.406 209.904 110.682 202.319 115.953 194.667C118.099 191.552 120.091 188.388 121.94 185.183C133.118 165.797 138.793 143.869 138.793 121.649V114.033C138.793 100.267 136.655 86.5566 132.197 73.4902C131.985 72.865 131.765 72.2397 131.546 71.6182C123.952 50.3227 111.222 29.7834 92.666 12.2244C91.2559 10.8915 89.1368 9.27038 86.7441 8.34937C85.569 7.89636 84.3245 7.61182 83.0723 7.61182C82.0551 7.61182 81.0264 7.79901 80.0208 8.23705L80.0169 8.22957Z" fill="url(#paint0_linear_1219_588)"/>
<path d="M213.37 44.6954C205.545 34.0551 171.154 43.4412 129.277 65.8487C129.369 66.0246 129.458 66.2044 129.546 66.3803C129.592 66.4777 129.639 66.575 129.685 66.6723C163.413 48.9223 190.172 41.2697 196.005 49.1994C204.065 60.1616 169.123 96.695 117.961 130.81C66.7939 164.921 18.7828 183.689 10.7225 172.727C3.40585 162.783 31.5282 131.757 75.043 100.607V99.7014C24.4427 135.883 -7.77144 173.086 1.62581 185.868C11.8591 199.788 67.5606 179.47 126.029 140.484C184.504 101.502 223.603 58.6154 213.366 44.6954" fill="#B499C9"/>
<path d="M141.995 42.5763C137.88 28.3867 134.543 25.2081 119.64 21.2882C134.547 17.3683 137.884 14.1934 141.995 0.00390625C146.11 14.1934 149.446 17.3721 164.35 21.2882C149.443 25.2119 146.106 28.3867 141.995 42.5763Z" fill="#B499C9"/>
<path d="M36.1864 153.034C32.7573 141.21 29.9755 138.56 17.5576 135.295C29.9755 132.03 32.7612 129.38 36.1864 117.556C39.6155 129.38 42.3973 132.03 54.8152 135.295C42.3973 138.56 39.6117 141.21 36.1864 153.034Z" fill="#B499C9"/>
</g>
<defs>
<linearGradient id="paint0_linear_1219_588" x1="70.9996" y1="115.739" x2="141.342" y2="115.739" gradientUnits="userSpaceOnUse">
<stop stop-color="white"/>
<stop offset="1" stop-color="#B499C9"/>
</linearGradient>
<clipPath id="clip0_1219_588">
<rect width="215" height="222.963" fill="white"/>
</clipPath>
</defs>
</svg>
