<svg width="81" height="81" viewBox="0 0 81 81" fill="none" xmlns="http://www.w3.org/2000/svg">
<path fill-rule="evenodd" clip-rule="evenodd" d="M44.8026 40.1873C44.8026 42.7362 42.7363 44.8026 40.1873 44.8026C37.6383 44.8026 35.5719 42.7362 35.5719 40.1873C35.5719 37.6383 37.6383 35.5719 40.1873 35.5719C42.7363 35.5719 44.8026 37.6383 44.8026 40.1873ZM23.2643 35.5719C20.7153 35.5719 18.649 37.6383 18.649 40.1873C18.649 42.7362 20.7153 44.8026 23.2643 44.8026C25.8133 44.8026 27.8797 42.7362 27.8797 40.1873C27.8797 37.6383 25.8133 35.5719 23.2643 35.5719ZM57.1102 35.5719C54.5613 35.5719 52.4949 37.6383 52.4949 40.1873C52.4949 42.7362 54.5613 44.8026 57.1102 44.8026C59.6592 44.8026 61.7256 42.7362 61.7256 40.1873C61.7256 37.6383 59.6592 35.5719 57.1102 35.5719ZM80.187 40.1873C80.1901 54.2345 72.8243 67.2538 60.7821 74.4864C48.7399 81.7189 33.7864 82.1046 21.3874 75.5024L8.29134 79.8678C6.07987 80.6053 3.64152 80.0298 1.99312 78.3814C0.344708 76.733 -0.230726 74.2947 0.506775 72.0832L4.87213 58.9871C-2.94375 44.2923 -0.843248 26.2933 10.1463 13.7931C21.1359 1.2929 38.7176 -3.0958 54.2925 2.77344C69.8674 8.64269 80.1802 23.5432 80.187 40.1873ZM74.0332 40.1873C74.0292 25.9578 65.1254 13.2503 51.7524 8.38813C38.3794 3.52593 23.3932 7.54742 14.2511 18.4515C5.1089 29.3556 3.76322 44.8135 10.8836 57.1333C11.3247 57.8967 11.4171 58.8126 11.1375 59.6487L6.34135 74.0332L20.7259 69.2371C21.0392 69.1302 21.3679 69.0757 21.6989 69.0755C22.2393 69.0765 22.7699 69.2197 23.2374 69.4909C33.7098 75.55 46.6201 75.5582 57.1002 69.5123C67.5802 63.4664 74.036 52.2862 74.0332 40.1873Z" fill="#756982" fill-opacity="0.2"/>
</svg>
