<svg width="112" height="26" viewBox="0 0 112 26" fill="none" xmlns="http://www.w3.org/2000/svg">
<path d="M2.40003 11.7797L0.818502 13L1.55146 13.5655L3.54559 15.1041L3.70381 15.2262L3.7343 15.4237C4.6556 21.3902 9.72643 25.5 16 25.5H99C105.904 25.5 111.5 19.9036 111.5 13C111.5 6.09644 105.904 0.5 99 0.5H16C9.91924 0.5 4.85162 4.84241 3.73093 10.5956L3.69488 10.7807L3.54559 10.8959L3.24016 10.5L3.54557 10.8959L3.5455 10.8959L3.54523 10.8961L3.54416 10.897L3.53989 10.9003L3.52311 10.9132L3.45827 10.9632L3.21726 11.1492L2.40003 11.7797Z" fill="white" fill-opacity="0.9" stroke="#B98CE0"/>
<path d="M95 6C94.2268 6 93.6 6.6268 93.6 7.4V11.6H89.4C88.6268 11.6 88 12.2268 88 13C88 13.7732 88.6268 14.4 89.4 14.4H93.6V18.6C93.6 19.3732 94.2268 20 95 20C95.7732 20 96.4 19.3732 96.4 18.6V14.4H100.6C101.373 14.4 102 13.7732 102 13C102 12.2268 101.373 11.6 100.6 11.6H96.4V7.4C96.4 6.6268 95.7732 6 95 6Z" fill="#FFAC30"/>
</svg>
