<svg width="20" height="20" viewBox="0 0 16 16" fill="none" xmlns="http://www.w3.org/2000/svg">
<path fill-rule="evenodd" clip-rule="evenodd" d="M8.00001 0C7.11635 0 6.40001 0.716344 6.40001 1.6V6.40001H1.6C0.716344 6.40001 0 7.11635 0 8.00001C0 8.88366 0.716344 9.60001 1.6 9.60001H6.40001V14.4C6.40001 15.2837 7.11635 16 8.00001 16C8.88366 16 9.60001 15.2837 9.60001 14.4V9.60001H14.4C15.2837 9.60001 16 8.88366 16 8.00001C16 7.11635 15.2837 6.40001 14.4 6.40001H9.60001V1.6C9.60001 0.716344 8.88366 0 8.00001 0Z" fill="#FFAC30"/>
</svg>
