<svg width="60" height="26" viewBox="0 0 60 26" fill="none" xmlns="http://www.w3.org/2000/svg">
<rect width="60" height="26" rx="12" fill="#FFAC30"/>
<path fill-rule="evenodd" clip-rule="evenodd" d="M14 6C13.2268 6 12.6 6.6268 12.6 7.4V11.6H8.4C7.6268 11.6 7 12.2268 7 13C7 13.7732 7.6268 14.4 8.4 14.4H12.6V18.6C12.6 19.3732 13.2268 20 14 20C14.7732 20 15.4 19.3732 15.4 18.6V14.4H19.6C20.3732 14.4 21 13.7732 21 13C21 12.2268 20.3732 11.6 19.6 11.6H15.4V7.4C15.4 6.6268 14.7732 6 14 6Z" fill="white"/>
<path d="M31.704 14.612H33.288V16.208H31.704V14.612ZM27.48 13.796H37.524V15.044H27.48V13.796ZM31.704 8.492H33.288V10.028H31.704V8.492ZM31.608 10.148H33.012V10.364C33.012 12.044 31.404 13.232 28.368 13.436L27.9 12.236C30.576 12.08 31.608 11.216 31.608 10.364V10.148ZM31.98 10.148H33.384V10.364C33.384 11.216 34.416 12.08 37.092 12.236L36.624 13.436C33.588 13.232 31.98 12.044 31.98 10.364V10.148ZM28.44 9.452H36.564V10.688H28.44V9.452ZM32.484 15.8C34.908 15.8 36.336 16.472 36.336 17.684C36.336 18.908 34.908 19.568 32.484 19.568C30.06 19.568 28.62 18.908 28.62 17.684C28.62 16.472 30.06 15.8 32.484 15.8ZM32.484 16.976C30.972 16.976 30.24 17.18 30.24 17.684C30.24 18.176 30.972 18.392 32.484 18.392C33.984 18.392 34.728 18.176 34.728 17.684C34.728 17.18 33.984 16.976 32.484 16.976ZM44.4711 11.324H47.0631V12.608H44.4711V11.324ZM46.2231 8.468H47.8191V16.568H46.2231V8.468ZM40.4871 18.104H48.0711V19.376H40.4871V18.104ZM40.4871 15.884H42.0831V18.86H40.4871V15.884ZM41.0871 9.92H42.3831V10.616C42.3831 12.704 41.3991 14.636 39.2631 15.344L38.4591 14.072C40.2951 13.472 41.0871 12.02 41.0871 10.616V9.92ZM41.4231 9.92H42.7071V10.616C42.7071 11.912 43.4631 13.292 45.2151 13.88L44.4351 15.128C42.3711 14.444 41.4231 12.596 41.4231 10.616V9.92ZM38.8911 9.212H44.8671V10.472H38.8911V9.212Z" fill="white"/>
</svg>
