<svg width="20" height="20" viewBox="0 0 20 20" fill="none" xmlns="http://www.w3.org/2000/svg">
<path fill-rule="evenodd" clip-rule="evenodd" d="M18.25 5H14.5C14.5 2.51472 12.4853 0.5 10 0.5C7.51472 0.5 5.5 2.51472 5.5 5H1.75C0.921573 5 0.25 5.67157 0.25 6.5V17.75C0.25 18.5784 0.921573 19.25 1.75 19.25H18.25C19.0784 19.25 19.75 18.5784 19.75 17.75V6.5C19.75 5.67157 19.0784 5 18.25 5ZM10 2C11.6569 2 13 3.34315 13 5H7C7 3.34315 8.34315 2 10 2ZM18.25 17.75H1.75V6.5H5.5V8C5.5 8.41421 5.83579 8.75 6.25 8.75C6.66421 8.75 7 8.41421 7 8V6.5H13V8C13 8.41421 13.3358 8.75 13.75 8.75C14.1642 8.75 14.5 8.41421 14.5 8V6.5H18.25V17.75Z" fill="none"/>
</svg>
