<svg width="80" height="80" viewBox="0 0 80 80" fill="none" xmlns="http://www.w3.org/2000/svg">
<g filter="url(#filter0_d_155_4586)">
<path d="M70 36C70 42.3116 68.0509 48.1679 64.7218 53C64.0823 53.9282 65.5967 57.0577 66.3408 59.4107C66.8308 60.9603 65.5184 61.596 63.9817 61.0668C61.7601 60.3018 58.7603 59.4311 58 60.0022C52.986 63.7683 46.7536 66 40 66C23.4315 66 10 52.5685 10 36C10 19.4315 23.4315 6 40 6C56.5685 6 70 19.4315 70 36Z" fill="#B98CE0"/>
<path d="M65.5745 53.5248C68.9971 48.5394 71 42.5021 71 36C71 18.8792 57.1208 5 40 5C22.8792 5 9 18.8792 9 36C9 53.1208 22.8792 67 40 67C46.9556 67 53.3788 64.708 58.5515 60.8385C58.5779 60.8339 58.6815 60.8123 58.9116 60.8196C59.2479 60.8301 59.6969 60.8957 60.2322 61.0111C61.2965 61.2404 62.5577 61.6341 63.6561 62.0123C64.5807 62.3307 65.6393 62.3731 66.4508 61.8666C66.877 61.6005 67.2048 61.1953 67.3554 60.6763C67.502 60.1711 67.46 59.6334 67.2943 59.1092C67.0998 58.4942 66.8572 57.8352 66.6217 57.1995L66.581 57.0897C66.3565 56.4839 66.1405 55.9008 65.9625 55.359C65.7717 54.7781 65.642 54.295 65.5909 53.9255C65.5548 53.6641 65.5716 53.5507 65.5745 53.5248Z" stroke="white" stroke-width="2"/>
</g>
<path d="M40 46C38.7114 41.3335 37.6665 40.2886 33 39C37.6665 37.7114 38.7114 36.6665 40 32C41.2886 36.6665 42.3335 37.7114 47 39C42.3335 40.2886 41.2886 41.3335 40 46Z" fill="white"/>
<path d="M57 46C55.7114 41.3335 54.6665 40.2886 50 39C54.6665 37.7114 55.7114 36.6665 57 32C58.2886 36.6665 59.3335 37.7114 64 39C59.3335 40.2886 58.2886 41.3335 57 46Z" fill="white"/>
<path d="M23 46C21.7114 41.3335 20.6665 40.2886 16 39C20.6665 37.7114 21.7114 36.6665 23 32C24.2886 36.6665 25.3335 37.7114 30 39C25.3335 40.2886 24.2886 41.3335 23 46Z" fill="white"/>
<defs>
<filter id="filter0_d_155_4586" x="0" y="0" width="80" height="80" filterUnits="userSpaceOnUse" color-interpolation-filters="sRGB">
<feFlood flood-opacity="0" result="BackgroundImageFix"/>
<feColorMatrix in="SourceAlpha" type="matrix" values="0 0 0 0 0 0 0 0 0 0 0 0 0 0 0 0 0 0 127 0" result="hardAlpha"/>
<feOffset dy="4"/>
<feGaussianBlur stdDeviation="4"/>
<feComposite in2="hardAlpha" operator="out"/>
<feColorMatrix type="matrix" values="0 0 0 0 0 0 0 0 0 0 0 0 0 0 0 0 0 0 0.25 0"/>
<feBlend mode="normal" in2="BackgroundImageFix" result="effect1_dropShadow_155_4586"/>
<feBlend mode="normal" in="SourceGraphic" in2="effect1_dropShadow_155_4586" result="shape"/>
</filter>
</defs>
</svg>
