<svg width="22" height="22" viewBox="0 0 22 22" fill="none" xmlns="http://www.w3.org/2000/svg">
<path d="M19.6898 16.8956C20.8323 15.2148 21.5 13.1846 21.5 11C21.5 5.20101 16.799 0.5 11 0.5C5.20101 0.5 0.5 5.20101 0.5 11C0.5 16.799 5.20101 21.5 11 21.5C13.3396 21.5 15.5017 20.7342 17.2475 19.4399C17.2658 19.4391 17.2921 19.439 17.3276 19.4411C17.4474 19.4482 17.6124 19.4761 17.8122 19.5233C18.2082 19.6169 18.6693 19.7691 19.037 19.9007C19.3134 19.9995 19.6612 20.0238 19.9535 19.8576C20.1083 19.7696 20.2399 19.6298 20.3096 19.4416C20.3779 19.2572 20.3724 19.066 20.3266 18.8918C20.2521 18.6076 20.1216 18.2549 20.0028 17.9337C19.9464 17.7814 19.8927 17.6362 19.8488 17.5087C19.7737 17.2905 19.7221 17.114 19.7 16.9825C19.6935 16.9436 19.6907 16.9152 19.6898 16.8956ZM17.2161 19.4431C17.216 19.4431 17.217 19.4429 17.2193 19.4425C17.2173 19.443 17.2162 19.4432 17.2161 19.4431ZM19.6898 16.8663C19.6899 16.8649 19.69 16.8643 19.69 16.8643L19.6898 16.8663Z" fill="current" stroke="white"/>
<path d="M11 6C10.3864 6 9.88889 6.49746 9.88889 7.11111V9.88835H7.11111C6.49746 9.88835 6 10.3858 6 10.9995C6 11.6131 6.49746 12.1106 7.11111 12.1106H9.88889V14.8889C9.88889 15.5025 10.3864 16 11 16C11.6136 16 12.1111 15.5025 12.1111 14.8889V12.1106H14.8889C15.5025 12.1106 16 11.6131 16 10.9995C16 10.3858 15.5025 9.88835 14.8889 9.88835H12.1111V7.11111C12.1111 6.49746 11.6136 6 11 6Z" fill="white"/>
</svg>
