<svg width="12" height="12" viewBox="0 0 12 12" fill="none" xmlns="http://www.w3.org/2000/svg">
<circle cx="6" cy="6" r="6" transform="matrix(-1 0 0 1 12 0)" fill="white"/>
<path fill-rule="evenodd" clip-rule="evenodd" d="M8.42458 8.42462C8.31068 8.53852 8.126 8.53852 8.0121 8.42462L5.94971 6.36223L3.88731 8.42462C3.77341 8.53852 3.58874 8.53852 3.47483 8.42462C3.36093 8.31072 3.36093 8.12604 3.47483 8.01214L5.53723 5.94975L3.47483 3.88735C3.36093 3.77345 3.36093 3.58878 3.47483 3.47487C3.58874 3.36097 3.77341 3.36097 3.88731 3.47487L5.94971 5.53727L8.0121 3.47487C8.126 3.36097 8.31068 3.36097 8.42458 3.47487C8.53848 3.58878 8.53848 3.77345 8.42458 3.88735L6.36219 5.94975L8.42458 8.01214C8.53848 8.12604 8.53848 8.31072 8.42458 8.42462Z" fill="#756982"/>
</svg>
