<svg width="14" height="13" viewBox="0 0 14 13" fill="none" xmlns="http://www.w3.org/2000/svg">
<circle cx="6.86438" cy="6.37891" r="6" fill="white"/>
<path fill-rule="evenodd" clip-rule="evenodd" d="M10.046 9.54594C9.89955 9.69239 9.66211 9.69239 9.51566 9.54594L6.86401 6.89429L4.21236 9.54594C4.06592 9.69239 3.82848 9.69239 3.68203 9.54594C3.53559 9.39949 3.53559 9.16206 3.68203 9.01561L6.33368 6.36396L3.68203 3.71231C3.53559 3.56586 3.53559 3.32843 3.68203 3.18198C3.82848 3.03553 4.06592 3.03553 4.21236 3.18198L6.86401 5.83363L9.51566 3.18198C9.66211 3.03553 9.89955 3.03553 10.046 3.18198C10.1924 3.32843 10.1924 3.56586 10.046 3.71231L7.39434 6.36396L10.046 9.01561C10.1924 9.16206 10.1924 9.39949 10.046 9.54594Z" fill="#756982"/>
</svg>
