<svg width="14" height="14" viewBox="0 0 14 14" fill="none" xmlns="http://www.w3.org/2000/svg">
<path fill-rule="evenodd" clip-rule="evenodd" d="M13 13C12.7239 13.2761 12.2761 13.2761 12 13L7 8L2 13C1.72386 13.2761 1.27614 13.2761 1 13C0.723858 12.7239 0.723859 12.2761 1 12L6 7L1 2C0.723858 1.72386 0.723858 1.27614 1 1C1.27614 0.723857 1.72386 0.723857 2 0.999999L7 6L12 0.999999C12.2761 0.723857 12.7239 0.723857 13 1C13.2761 1.27614 13.2761 1.72386 13 2L8 7L13 12C13.2761 12.2761 13.2761 12.7239 13 13Z" fill="#756982"/>
</svg>
