<svg width="23" height="23" viewBox="0 0 23 23" fill="none" xmlns="http://www.w3.org/2000/svg">
<path fill-rule="evenodd" clip-rule="evenodd" d="M17.5232 12.0994L12.6847 10.3181L10.9035 5.47594C10.6874 4.88898 10.1283 4.499 9.50287 4.499C8.87742 4.499 8.3183 4.88898 8.10225 5.47594L6.31912 10.3125L1.47694 12.0938C0.889983 12.3098 0.5 12.8689 0.5 13.4944C0.5 14.1198 0.889983 14.6789 1.47694 14.895L6.31256 16.6875L8.09381 21.5269C8.30987 22.1138 8.86898 22.5038 9.49444 22.5038C10.1199 22.5038 10.679 22.1138 10.8951 21.5269L12.6763 16.6884L17.5185 14.9072C18.1055 14.6911 18.4954 14.132 18.4954 13.5066C18.4954 12.8811 18.1055 12.322 17.5185 12.1059L17.5232 12.0994ZM12.1616 15.2812C11.7514 15.4318 11.4281 15.7551 11.2776 16.1653L9.49631 20.9897L7.71881 16.1616C7.56815 15.7536 7.2465 15.4319 6.8385 15.2812L2.01412 13.5L6.8385 11.7188C7.2465 11.5681 7.56815 11.2464 7.71881 10.8384L9.50006 6.01406L11.2813 10.8384C11.4319 11.2487 11.7552 11.5719 12.1654 11.7225L16.9897 13.5037L12.1616 15.2812ZM12.5001 3.75C12.5001 3.33579 12.8358 3 13.2501 3H14.7501V1.5C14.7501 1.08579 15.0858 0.75 15.5001 0.75C15.9143 0.75 16.2501 1.08579 16.2501 1.5V3H17.7501C18.1643 3 18.5001 3.33579 18.5001 3.75C18.5001 4.16421 18.1643 4.5 17.7501 4.5H16.2501V6C16.2501 6.41421 15.9143 6.75 15.5001 6.75C15.0858 6.75 14.7501 6.41421 14.7501 6V4.5H13.2501C12.8358 4.5 12.5001 4.16421 12.5001 3.75ZM22.2501 8.25C22.2501 8.66421 21.9143 9 21.5001 9H20.7501V9.75C20.7501 10.1642 20.4143 10.5 20.0001 10.5C19.5858 10.5 19.2501 10.1642 19.2501 9.75V9H18.5001C18.0858 9 17.7501 8.66421 17.7501 8.25C17.7501 7.83579 18.0858 7.5 18.5001 7.5H19.2501V6.75C19.2501 6.33579 19.5858 6 20.0001 6C20.4143 6 20.7501 6.33579 20.7501 6.75V7.5H21.5001C21.9143 7.5 22.2501 7.83579 22.2501 8.25Z" fill="currentColor" stroke-width="1.5" stroke="transparent"/>
<path d="M12.1616 15.2812C11.7514 15.4318 11.4281 15.7551 11.2776 16.1653L9.49631 20.9897L7.71881 16.1616C7.56815 15.7536 7.2465 15.4319 6.8385 15.2812L2.01412 13.5L6.8385 11.7188C7.2465 11.5681 7.56815 11.2464 7.71881 10.8384L9.50006 6.01406L11.2813 10.8384C11.4319 11.2487 11.7552 11.5719 12.1654 11.7225L16.9897 13.5037L12.1616 15.2812Z" fill="none" stroke="transparent"/>
</svg>
