<svg width="23" height="23" viewBox="0 0 23 23" fill="none" xmlns="http://www.w3.org/2000/svg">
<path fill-rule="evenodd" clip-rule="evenodd" d="M17.5231 12.0994L12.6847 10.3181L10.9034 5.47594C10.6874 4.88898 10.1283 4.499 9.50281 4.499C8.87736 4.499 8.31824 4.88898 8.10219 5.47594L6.31906 10.3125L1.47688 12.0938C0.889921 12.3098 0.499939 12.8689 0.499939 13.4944C0.499939 14.1198 0.889921 14.6789 1.47688 14.895L6.3125 16.6875L8.09375 21.5269C8.3098 22.1138 8.86892 22.5038 9.49438 22.5038C10.1198 22.5038 10.6789 22.1138 10.895 21.5269L12.6763 16.6884L17.5184 14.9072C18.1054 14.6911 18.4954 14.132 18.4954 13.5066C18.4954 12.8811 18.1054 12.322 17.5184 12.1059L17.5231 12.0994ZM12.1616 15.2812C11.7513 15.4318 11.4281 15.7551 11.2775 16.1653L9.49625 20.9897L7.71875 16.1616C7.56809 15.7536 7.24644 15.4319 6.83844 15.2812L2.01406 13.5L6.83844 11.7188C7.24644 11.5681 7.56809 11.2464 7.71875 10.8384L9.5 6.01406L11.2812 10.8384C11.4318 11.2487 11.7551 11.5719 12.1653 11.7225L16.9897 13.5037L12.1616 15.2812ZM12.5 3.75C12.5 3.33579 12.8358 3 13.25 3H14.75V1.5C14.75 1.08579 15.0858 0.75 15.5 0.75C15.9142 0.75 16.25 1.08579 16.25 1.5V3H17.75C18.1642 3 18.5 3.33579 18.5 3.75C18.5 4.16421 18.1642 4.5 17.75 4.5H16.25V6C16.25 6.41421 15.9142 6.75 15.5 6.75C15.0858 6.75 14.75 6.41421 14.75 6V4.5H13.25C12.8358 4.5 12.5 4.16421 12.5 3.75ZM22.25 8.25C22.25 8.66421 21.9142 9 21.5 9H20.75V9.75C20.75 10.1642 20.4142 10.5 20 10.5C19.5858 10.5 19.25 10.1642 19.25 9.75V9H18.5C18.0858 9 17.75 8.66421 17.75 8.25C17.75 7.83579 18.0858 7.5 18.5 7.5H19.25V6.75C19.25 6.33579 19.5858 6 20 6C20.4142 6 20.75 6.33579 20.75 6.75V7.5H21.5C21.9142 7.5 22.25 7.83579 22.25 8.25Z" fill="none"/>
</svg>
