<svg width="18" height="18" viewBox="0 0 18 18" fill="none" xmlns="http://www.w3.org/2000/svg">
<path fill-rule="evenodd" clip-rule="evenodd" d="M9 0.875C4.51269 0.875 0.875 4.51269 0.875 9C0.875 13.4873 4.51269 17.125 9 17.125C13.4873 17.125 17.125 13.4873 17.125 9C17.1203 4.51465 13.4853 0.879737 9 0.875ZM9 15.875C5.20304 15.875 2.125 12.797 2.125 9C2.125 5.20304 5.20304 2.125 9 2.125C12.797 2.125 15.875 5.20304 15.875 9C15.8707 12.7952 12.7952 15.8707 9 15.875ZM5.25 7.4375C5.25 6.91973 5.66973 6.5 6.1875 6.5C6.70527 6.5 7.125 6.91973 7.125 7.4375C7.125 7.95527 6.70527 8.375 6.1875 8.375C5.66973 8.375 5.25 7.95527 5.25 7.4375ZM12.75 7.4375C12.75 7.95527 12.3303 8.375 11.8125 8.375C11.2947 8.375 10.875 7.95527 10.875 7.4375C10.875 6.91973 11.2947 6.5 11.8125 6.5C12.3303 6.5 12.75 6.91973 12.75 7.4375ZM12.6664 11.1875C11.8625 12.5773 10.5258 13.375 9 13.375C7.47422 13.375 6.13828 12.5781 5.33437 11.1875C5.21121 10.9938 5.20418 10.7481 5.31606 10.5476C5.42795 10.3471 5.64073 10.2242 5.87028 10.2273C6.09984 10.2304 6.30921 10.3591 6.41563 10.5625C6.99922 11.5711 7.91641 12.125 9 12.125C10.0836 12.125 11.0008 11.5703 11.5836 10.5625C11.7562 10.2635 12.1385 10.161 12.4375 10.3336C12.7365 10.5062 12.839 10.8885 12.6664 11.1875Z" fill="#756982"/>
</svg>
