<svg width="96" height="81" viewBox="0 0 96 81" fill="none" xmlns="http://www.w3.org/2000/svg">
<g clip-path="url(#clip0_2354_12469)">
<path fill-rule="evenodd" clip-rule="evenodd" d="M88.6154 14.7273H49.5277L36.9231 2.1585C35.543 0.771293 33.6627 -0.00620554 31.7031 3.73063e-05H7.38462C3.3062 3.73063e-05 0 3.29685 0 7.36367V73.9217C0.00508536 77.8288 3.1802 80.9949 7.09846 81H89.0262C92.8756 80.9949 95.9949 77.8845 96 74.046V22.0909C96 18.0241 92.6938 14.7273 88.6154 14.7273Z" fill="#B98CE0"/>
<circle cx="47.5" cy="50" r="12" fill="#F2F2F5"/>
<path fill-rule="evenodd" clip-rule="evenodd" d="M56.5 50C56.5 50.4142 56.1642 50.75 55.75 50.75H48.25V58.25C48.25 58.6642 47.9142 59 47.5 59C47.0858 59 46.75 58.6642 46.75 58.25V50.75H39.25C38.8358 50.75 38.5 50.4142 38.5 50C38.5 49.5858 38.8358 49.25 39.25 49.25H46.75V41.75C46.75 41.3358 47.0858 41 47.5 41C47.9142 41 48.25 41.3358 48.25 41.75V49.25H55.75C56.1642 49.25 56.5 49.5858 56.5 50Z" fill="#B98CE0"/>
</g>
<defs>
<clipPath id="clip0_2354_12469">
<rect width="96" height="81" fill="white"/>
</clipPath>
</defs>
</svg>
