<svg width="17" height="19" viewBox="0 0 17 19" fill="none" xmlns="http://www.w3.org/2000/svg">
<mask id="mask0_155_3320" style="mask-type:luminance" maskUnits="userSpaceOnUse" x="0" y="0" width="17" height="19">
<path d="M16.7598 0.75H0V18.25H16.7598V0.75Z" fill="white"/>
</mask>
<g mask="url(#mask0_155_3320)">
<path d="M16.4246 9.69899C16.4246 9.07853 16.3713 8.48195 16.2722 7.90918H8.37988V11.2939H12.8898C12.6955 12.3876 12.1052 13.3143 11.2176 13.9348V16.1302H13.9259C15.5104 14.607 16.4246 12.3637 16.4246 9.69899Z" fill="#4285F4"/>
<path d="M8.37972 18.2501C10.6423 18.2501 12.5392 17.4665 13.9256 16.1302L11.2174 13.9348C10.4671 14.4598 9.50715 14.77 8.37972 14.77C6.19709 14.77 4.34974 13.2307 3.69075 11.1626H0.891113V13.4296C2.27002 16.2893 5.10393 18.2501 8.37972 18.2501Z" fill="#34A853"/>
<path d="M3.69092 11.1623C3.52332 10.6373 3.42813 10.0766 3.42813 9.49985C3.42813 8.92314 3.52332 8.36235 3.69092 7.83735V5.57031H0.891285C0.323799 6.75156 0 8.08795 0 9.49985C0 10.9117 0.323799 12.2481 0.891285 13.4294L3.69092 11.1623Z" fill="#FBBC04"/>
<path d="M8.37972 4.23014C9.60997 4.23014 10.7146 4.67158 11.5831 5.53861L13.9866 3.02894C12.5354 1.61704 10.6384 0.75 8.37972 0.75C5.10393 0.75 2.27002 2.71079 0.891113 5.57046L3.69075 7.8375C4.34974 5.76935 6.19709 4.23014 8.37972 4.23014Z" fill="#E94235"/>
</g>
</svg>
