<svg width="21" height="13" viewBox="0 0 21 13" fill="none" xmlns="http://www.w3.org/2000/svg">
<path d="M2.89743 1.6447C3.07851 1.17864 3.0784 1.1786 3.07828 1.17856L3.07804 1.17846L3.0775 1.17825L3.07617 1.17774L3.07259 1.17638L3.0618 1.17233C3.05304 1.16908 3.04115 1.16475 3.02648 1.1596C2.99721 1.14932 2.95649 1.13562 2.90711 1.12059C2.80964 1.09092 2.67225 1.05414 2.51898 1.02913C2.36914 1.00469 2.18267 0.987834 1.9942 1.01112C1.80793 1.03414 1.57104 1.10287 1.38299 1.2944C0.872337 1.81447 0.872337 2.65397 1.38299 3.17404L9.5642 11.5062C9.8107 11.7576 10.1472 11.9005 10.5 11.9005C10.8527 11.9005 11.1891 11.7577 11.4356 11.5064C11.4357 11.5064 11.4357 11.5063 11.4358 11.5062L19.617 3.17404C20.1277 2.65397 20.1277 1.81447 19.617 1.2944C19.429 1.10287 19.1921 1.03414 19.0058 1.01112C18.8173 0.987834 18.6309 1.00469 18.481 1.02913C18.3278 1.05414 18.1904 1.09092 18.0929 1.12059C18.0435 1.13562 18.0028 1.14932 17.9735 1.1596C17.9589 1.16475 17.947 1.16908 17.9382 1.17233L17.9274 1.17638L17.9238 1.17774L17.9225 1.17825L17.922 1.17846L17.9217 1.17856C17.9216 1.1786 17.9215 1.17864 18.1026 1.6447L17.9215 1.17864L17.9009 1.18664L17.8811 1.19642L10.5 4.84283L3.11889 1.19642L3.09909 1.18664L3.07851 1.17864L2.89743 1.6447Z" 
fill="current" stroke="current"/>
</svg>
