<svg viewBox="0 0 21 19" fill="none" xmlns="http://www.w3.org/2000/svg">
<path fill-rule="nonzero" clip-rule="evenodd" d="M15.1875 0.75C13.2516 0.75 11.5566 1.5825 10.5 2.98969C9.44344 1.5825 7.74844 0.75 5.8125 0.75C2.60384 0.753617 0.00361655 3.35384 0 6.5625C0 13.125 9.73031 18.4369 10.1447 18.6562C10.3665 18.7756 10.6335 18.7756 10.8553 18.6562C11.2697 18.4369 21 13.125 21 6.5625C20.9964 3.35384 18.3962 0.753617 15.1875 0.75ZM1.5 6.5625C1.5 11.5959 8.78813 16.14 10.5 17.1375C12.21 16.1391 19.5 11.5884 19.5 6.5625C19.4969 4.18206 17.5679 2.2531 15.1875 2.25C13.3641 2.25 11.8331 3.21844 11.1938 4.78125C11.0782 5.06259 10.8041 5.24627 10.5 5.24627C10.1959 5.24627 9.92182 5.06259 9.80625 4.78125C9.16687 3.22125 7.63594 2.25 5.8125 2.25C3.43206 2.2531 1.5031 4.18206 1.5 6.5625Z" fill="#FF007A"/>
</svg>
