<svg width="20" height="21" viewBox="0 0 20 21" fill="none" xmlns="http://www.w3.org/2000/svg">
<path fill-rule="evenodd" clip-rule="evenodd" d="M19 9.83317V18.5004C19 19.3288 18.3284 20.0004 17.5 20.0004H13.75C12.9216 20.0004 12.25 19.3288 12.25 18.5004V14.7504C12.25 14.3361 11.9142 14.0004 11.5 14.0004H8.5C8.08579 14.0004 7.75 14.3361 7.75 14.7504V18.5004C7.75 19.3288 7.07843 20.0004 6.25 20.0004H2.5C1.67157 20.0004 1 19.3288 1 18.5004V9.83317C0.999936 9.41345 1.17573 9.0129 1.48469 8.7288L8.98469 1.65255L8.995 1.64223C9.56719 1.12186 10.4412 1.12186 11.0134 1.64223C11.0166 1.6459 11.0201 1.64935 11.0238 1.65255L18.5238 8.7288C18.8296 9.01438 19.0022 9.41473 19 9.83317Z" fill="none" stroke="currentColor" stroke-width="1.5"/>
</svg>
