<svg width="18" height="19" viewBox="0 0 18 19" fill="none" xmlns="http://www.w3.org/2000/svg">
<path fill-rule="evenodd" clip-rule="evenodd" d="M18 8.83293V17.5001C18 18.3285 17.3284 19.0001 16.5 19.0001H12.75C11.9216 19.0001 11.25 18.3285 11.25 17.5001V13.7501C11.25 13.3359 10.9142 13.0001 10.5 13.0001H7.5C7.08579 13.0001 6.75 13.3359 6.75 13.7501V17.5001C6.75 18.3285 6.07843 19.0001 5.25 19.0001H1.5C0.671573 19.0001 1.73613e-08 18.3285 1.73613e-08 17.5001V8.83293C-6.37851e-05 8.4132 0.17573 8.01265 0.484688 7.72855L7.98469 0.652302L7.995 0.641989C8.56719 0.121615 9.44124 0.121615 10.0134 0.641989C10.0166 0.645658 10.0201 0.649103 10.0238 0.652302L17.5238 7.72855C17.8296 8.01413 18.0022 8.41449 18 8.83293Z" fill="none"/>
</svg>
