<svg width="28" height="28" viewBox="0 0 28 28" fill="none" xmlns="http://www.w3.org/2000/svg">
<circle cx="14" cy="14" r="14" fill="#F2F2F5"/>
<path fill-rule="evenodd" clip-rule="evenodd" d="M24.5 14C24.5 14.4832 24.1082 14.875 23.625 14.875H14.875V23.625C14.875 24.1082 14.4832 24.5 14 24.5C13.5168 24.5 13.125 24.1082 13.125 23.625V14.875H4.375C3.89175 14.875 3.5 14.4832 3.5 14C3.5 13.5168 3.89175 13.125 4.375 13.125H13.125V4.375C13.125 3.89175 13.5168 3.5 14 3.5C14.4832 3.5 14.875 3.89175 14.875 4.375V13.125H23.625C24.1082 13.125 24.5 13.5168 24.5 14Z" fill="#B98CE0"/>
</svg>
