<svg width="16" height="15" viewBox="0 0 16 15" fill="none" xmlns="http://www.w3.org/2000/svg">
<circle cx="8" cy="7" r="7" fill="#B98CE0"/>
<path fill-rule="evenodd" clip-rule="evenodd" d="M11.5355 10.6066C11.3728 10.7693 11.109 10.7693 10.9463 10.6066L8 7.66032L5.05372 10.6066C4.891 10.7693 4.62718 10.7693 4.46447 10.6066C4.30175 10.4439 4.30175 10.1801 4.46447 10.0173L7.41074 7.07107L4.46447 4.12479C4.30175 3.96207 4.30175 3.69825 4.46447 3.53553C4.62718 3.37282 4.891 3.37282 5.05372 3.53553L8 6.48181L10.9463 3.53553C11.109 3.37282 11.3728 3.37282 11.5355 3.53553C11.6983 3.69825 11.6983 3.96207 11.5355 4.12479L8.58926 7.07107L11.5355 10.0173C11.6983 10.1801 11.6983 10.4439 11.5355 10.6066Z" fill="white"/>
</svg>
