<svg width="16" height="16" viewBox="0 0 16 16" fill="none" xmlns="http://www.w3.org/2000/svg">
<path fill-rule="evenodd" clip-rule="evenodd" d="M12 10.7207C11.4933 10.7207 11.04 10.9207 10.6933 11.234L5.94 8.46732C5.97333 8.31398 6 8.16065 6 8.00065C6 7.84065 5.97333 7.68732 5.94 7.53398L10.64 4.79398C11 5.12732 11.4733 5.33398 12 5.33398C13.1067 5.33398 14 4.44065 14 3.33398C14 2.22732 13.1067 1.33398 12 1.33398C10.8933 1.33398 10 2.22732 10 3.33398C10 3.49398 10.0267 3.64732 10.06 3.80065L5.36 6.54065C5 6.20732 4.52667 6.00065 4 6.00065C2.89333 6.00065 2 6.89398 2 8.00065C2 9.10732 2.89333 10.0007 4 10.0007C4.52667 10.0007 5 9.79398 5.36 9.46065L10.1067 12.234C10.0733 12.374 10.0533 12.5207 10.0533 12.6673C10.0533 13.7407 10.9267 14.614 12 14.614C13.0733 14.614 13.9467 13.7407 13.9467 12.6673C13.9467 11.594 13.0733 10.7207 12 10.7207Z"/>
</svg>
