<svg width="12" height="12" viewBox="0 0 12 12" fill="none" xmlns="http://www.w3.org/2000/svg">
<path fill-rule="evenodd" clip-rule="evenodd" d="M6 12C2.68629 12 0 9.31371 0 6C0 2.68629 2.68629 0 6 0C9.31371 0 12 2.68629 12 6C12 7.23593 11.6259 8.38556 10.9848 9.34051C10.9926 9.39263 11.0124 9.46871 11.0461 9.57131C11.0783 9.66941 11.1177 9.77561 11.1602 9.89029L11.1674 9.90978C11.2113 10.0284 11.2584 10.1561 11.2964 10.2764C11.3356 10.4004 11.3495 10.5401 11.3092 10.6791C11.2674 10.8232 11.1756 10.9361 11.0588 11.009C10.8406 11.1453 10.5771 11.1244 10.3745 11.0546C10.1708 10.9845 9.94266 10.9135 9.75404 10.8729C9.66185 10.853 9.59184 10.8432 9.54497 10.8413C8.55175 11.5697 7.32561 12 6 12ZM9.50718 10.8421C9.50718 10.8421 9.50938 10.8415 9.5147 10.8412C9.51082 10.842 9.50718 10.8421 9.50718 10.8421ZM10.9816 9.30087L10.9817 9.30319L10.9814 9.30824C10.9812 9.30303 10.9816 9.30087 10.9816 9.30087ZM1.5 6.5625C2.37497 6.80412 2.57088 7.00003 2.8125 7.875C3.05412 7.00003 3.25003 6.80412 4.125 6.5625C3.25003 6.32088 3.05412 6.12497 2.8125 5.25C2.57088 6.12497 2.37497 6.32088 1.5 6.5625ZM6 7.875C5.75838 7.00003 5.56247 6.80412 4.6875 6.5625C5.56247 6.32088 5.75838 6.12497 6 5.25C6.24162 6.12497 6.43753 6.32088 7.3125 6.5625C6.43753 6.80412 6.24162 7.00003 6 7.875ZM9.1875 7.875C8.94588 7.00003 8.74997 6.80412 7.875 6.5625C8.74997 6.32088 8.94588 6.12497 9.1875 5.25C9.42912 6.12497 9.62503 6.32088 10.5 6.5625C9.62503 6.80412 9.42912 7.00003 9.1875 7.875Z"
fill="current" 
/>
</svg>
