<svg width="13" height="16" viewBox="0 0 13 16" fill="none" xmlns="http://www.w3.org/2000/svg">
<path fill-rule="evenodd" clip-rule="evenodd" d="M9.66683 1.33366C9.66683 0.965469 9.36835 0.666992 9.00016 0.666992H1.66683C0.933496 0.666992 0.333496 1.26699 0.333496 2.00033V10.667C0.333496 11.0352 0.631973 11.3337 1.00016 11.3337C1.36835 11.3337 1.66683 11.0352 1.66683 10.667V2.00033H9.00016C9.36835 2.00033 9.66683 1.70185 9.66683 1.33366ZM11.6668 3.33366H4.3335C3.60016 3.33366 3.00016 3.93366 3.00016 4.66699V14.0003C3.00016 14.7337 3.60016 15.3337 4.3335 15.3337H11.6668C12.4002 15.3337 13.0002 14.7337 13.0002 14.0003V4.66699C13.0002 3.93366 12.4002 3.33366 11.6668 3.33366ZM11.6668 14.0003H4.3335V4.66699H11.6668V14.0003Z" fill="#756982"/>
</svg>
