<svg width="18" height="18" viewBox="0 0 18 18" fill="none" xmlns="http://www.w3.org/2000/svg">
<path fill-rule="evenodd" clip-rule="evenodd" d="M13.5 1.5H4.5C2.84315 1.5 1.5 2.84315 1.5 4.5V13.5C1.5 15.1569 2.84315 16.5 4.5 16.5H13.5C15.1569 16.5 16.5 15.1569 16.5 13.5V4.5C16.5 2.84315 15.1569 1.5 13.5 1.5ZM7.12091 10.8271C6.88867 10.6234 6.53515 10.645 6.32959 10.8763C6.1232 11.1085 6.14411 11.464 6.3763 11.6704L6.58259 11.829C6.70434 11.9136 6.87902 12.0229 7.10226 12.1312C7.54876 12.3476 8.19507 12.5625 9.00001 12.5625C9.80494 12.5625 10.4513 12.3476 10.8978 12.1312C11.121 12.0229 11.2957 11.9136 11.4174 11.829C11.4784 11.7865 11.5264 11.7501 11.5609 11.7227L11.6237 11.6704C11.8559 11.464 11.8768 11.1085 11.6704 10.8763C11.4649 10.645 11.1113 10.6234 10.8791 10.8271L10.775 10.9054C10.6946 10.9614 10.5704 11.0396 10.4069 11.1189C10.08 11.2774 9.60132 11.4375 9.00001 11.4375C8.39869 11.4375 7.92 11.2774 7.59307 11.1189C7.42958 11.0396 7.30544 10.9614 7.22504 10.9054L7.12091 10.8271ZM12.75 7.5C12.75 7.91421 12.4142 8.25 12 8.25C11.5858 8.25 11.25 7.91421 11.25 7.5C11.25 7.08579 11.5858 6.75 12 6.75C12.4142 6.75 12.75 7.08579 12.75 7.5ZM6 8.25C6.41421 8.25 6.75 7.91421 6.75 7.5C6.75 7.08579 6.41421 6.75 6 6.75C5.58579 6.75 5.25 7.08579 5.25 7.5C5.25 7.91421 5.58579 8.25 6 8.25Z" fill="#E6E8EB"/>
</svg>
