<svg width="18" height="18" viewBox="0 0 18 18" fill="none" xmlns="http://www.w3.org/2000/svg">
<path fill-rule="evenodd" clip-rule="evenodd" d="M1.5 4.5C1.5 2.84315 2.84315 1.5 4.5 1.5H13.5C15.1569 1.5 16.5 2.84315 16.5 4.5V9.33677L14.8151 8.23392C13.5142 7.38246 11.8115 7.47293 10.6081 8.45745L6.6795 11.6718C5.85618 12.3454 4.69112 12.4073 3.80106 11.8247L1.5 10.3186V4.5ZM14.199 9.17521L16.5 10.6813V13.5C16.5 15.1569 15.1569 16.5 13.5 16.5H4.5C2.84315 16.5 1.5 15.1569 1.5 13.5V11.6632L3.18494 12.766C4.4858 13.6175 6.18859 13.527 7.39189 12.5425L11.3205 9.32815C12.1439 8.65453 13.3089 8.59263 14.199 9.17521ZM6.375 8.25C7.41053 8.25 8.25 7.41053 8.25 6.375C8.25 5.33947 7.41053 4.5 6.375 4.5C5.33947 4.5 4.5 5.33947 4.5 6.375C4.5 7.41053 5.33947 8.25 6.375 8.25Z" fill="#E6E8EB"/>
</svg>
