<svg width="20" height="17" viewBox="0 0 20 17" fill="none" xmlns="http://www.w3.org/2000/svg">
<path fill-rule="evenodd" clip-rule="evenodd" d="M18.25 3.50001H10.3103L7.75 0.939695C7.46966 0.657115 7.08773 0.498736 6.68969 0.500008H1.75C0.921573 0.500008 0.25 1.17158 0.25 2.00001V15.5581C0.251033 16.354 0.895978 16.999 1.69187 17H18.3334C19.1154 16.999 19.749 16.3654 19.75 15.5834V5.00001C19.75 4.17158 19.0784 3.50001 18.25 3.50001ZM1.75 2.00001H6.68969L8.18969 3.50001H1.75V2.00001ZM18.25 15.5H1.75V5.00001H18.25V15.5Z" fill="currentColor" stroke="transparent" stroke-width="1"/>
<path d="M18.25 15.5H1.75V5.00001H18.25V15.5Z" fill="none" stroke="transparent" stroke-width="1"/>
<path d="M1.75 2.00001H6.68969L8.18969 3.50001H1.75V2.00001Z" fill="none" stroke="transparent" stroke-width="1"/>
</svg>
