<svg width="22" height="19" viewBox="0 0 22 19" fill="none" xmlns="http://www.w3.org/2000/svg">
<path fill-rule="evenodd" clip-rule="evenodd" d="M15.6875 0.75C13.7516 0.75 12.0566 1.5825 11 2.98969C9.94344 1.5825 8.24844 0.75 6.3125 0.75C3.10384 0.753617 0.503617 3.35384 0.5 6.5625C0.5 13.125 10.2303 18.4369 10.6447 18.6562C10.8665 18.7756 11.1335 18.7756 11.3553 18.6562C11.7697 18.4369 21.5 13.125 21.5 6.5625C21.4964 3.35384 18.8962 0.753617 15.6875 0.75ZM11 17.1375C9.28813 16.14 2 11.5959 2 6.5625C2.0031 4.18206 3.93206 2.2531 6.3125 2.25C8.13594 2.25 9.66687 3.22125 10.3062 4.78125C10.4218 5.06259 10.6959 5.24627 11 5.24627C11.3041 5.24627 11.5782 5.06259 11.6938 4.78125C12.3331 3.21844 13.8641 2.25 15.6875 2.25C18.0679 2.2531 19.9969 4.18206 20 6.5625C20 11.5884 12.71 16.1391 11 17.1375Z" fill="currentColor" stroke-width="1.5" stroke="transparent"/>
<path d="M11 17.1375C9.28813 16.14 2 11.5959 2 6.5625C2.0031 4.18206 3.93206 2.2531 6.3125 2.25C8.13594 2.25 9.66687 3.22125 10.3062 4.78125C10.4218 5.06259 10.6959 5.24627 11 5.24627C11.3041 5.24627 11.5782 5.06259 11.6938 4.78125C12.3331 3.21844 13.8641 2.25 15.6875 2.25C18.0679 2.2531 19.9969 4.18206 20 6.5625C20 11.5884 12.71 16.1391 11 17.1375Z" fill="none" stroke="transparent" stroke-width="1"/>
</svg>
