<svg width="48" height="50" viewBox="0 0 48 50" fill="none" xmlns="http://www.w3.org/2000/svg">
<g clip-path="url(#clip0_4068_1410)">
<path d="M17.8642 1.84361C16.93 2.25165 16.924 3.52782 16.8647 4.19278C16.7692 5.24226 16.7872 6.28923 16.7872 7.33536V48.7002V48.7035C16.789 51.297 20.0344 49.3509 21.3858 48.4097C23.3092 47.0697 24.7104 45.3687 25.8871 43.6526C26.3663 42.954 26.811 42.2446 27.2239 41.5259C29.7193 37.1785 30.9863 32.2611 30.9863 27.2781V25.5704C30.9863 22.4832 30.5089 19.4086 29.5137 16.4785C29.4664 16.3383 29.4173 16.198 29.3683 16.0587C27.6729 11.2831 24.8308 6.67712 20.6882 2.73945C20.3734 2.44056 19.9003 2.07702 19.3661 1.87048C19.1037 1.76889 18.8259 1.70508 18.5463 1.70508C18.3192 1.70508 18.0896 1.74706 17.8651 1.84529L17.8642 1.84361Z" fill="url(#paint0_linear_4068_1410)"/>
<path d="M47.6361 10.0216C45.889 7.6355 38.2111 9.74035 28.8617 14.7653C28.8824 14.8047 28.9021 14.845 28.9219 14.8845C28.9322 14.9063 28.9426 14.9282 28.9529 14.95C36.4829 10.9695 42.4569 9.25339 43.7592 11.0316C45.5587 13.49 37.7577 21.6827 26.3353 29.333C14.9121 36.9825 4.19335 41.1913 2.39384 38.733C0.76035 36.5031 7.03884 29.5454 16.7538 22.56V22.3568C5.45696 30.4706 -1.73504 38.8136 0.362945 41.68C2.64759 44.8016 15.0833 40.2451 28.1366 31.5025C41.1916 22.7607 49.9207 13.1432 47.6352 10.0216" fill="#B499C9"/>
<path d="M31.7012 9.54696C30.7826 6.36492 30.0376 5.65211 26.7104 4.77306C30.0385 3.89401 30.7834 3.18204 31.7012 0C32.6199 3.18204 33.3648 3.89485 36.692 4.77306C33.364 5.65295 32.6191 6.36492 31.7012 9.54696Z" fill="#B499C9"/>
<path d="M8.07891 34.3173C7.31335 31.6658 6.6923 31.0714 3.91992 30.3393C6.6923 29.6072 7.31421 29.0127 8.07891 26.3613C8.84448 29.0127 9.46553 29.6072 12.2379 30.3393C9.46553 31.0714 8.84362 31.6658 8.07891 34.3173Z" fill="#B499C9"/>
</g>
<defs>
<linearGradient id="paint0_linear_4068_1410" x1="15.851" y1="25.953" x2="31.5554" y2="25.953" gradientUnits="userSpaceOnUse">
<stop stop-color="white"/>
<stop offset="1" stop-color="#B499C9"/>
</linearGradient>
<clipPath id="clip0_4068_1410">
<rect width="48" height="50" fill="white"/>
</clipPath>
</defs>
</svg>
