<svg width="40%" height="40%" viewBox="0 0 90 30" fill="none" xmlns="http://www.w3.org/2000/svg">
<rect width="90" height="30" rx="15" fill="#F2F2F5"/>
<path d="M23.15 6.916H25.562V23.638H23.15V6.916ZM12.548 8.248H14.924V12.298H18.362V8.248H20.738V19.75H12.548V8.248ZM14.924 14.152V17.824H18.362V14.152H14.924ZM32.8506 8.086C35.3346 8.086 37.1526 10.39 37.1526 14.026C37.1526 17.698 35.3346 20.002 32.8506 20.002C30.3486 20.002 28.5486 17.698 28.5486 14.026C28.5486 10.39 30.3486 8.086 32.8506 8.086ZM32.8506 10.264C31.6446 10.264 30.8346 11.578 30.8346 14.026C30.8346 16.51 31.6446 17.842 32.8506 17.842C34.0746 17.842 34.8666 16.51 34.8666 14.026C34.8666 11.578 34.0746 10.264 32.8506 10.264ZM39.8886 6.916H42.2646V23.638H39.8886V6.916ZM36.4506 12.928H40.8966V14.854H36.4506V12.928ZM48.5812 17.05H50.3812V17.608C50.3812 20.128 49.2652 22.432 46.6552 23.368L45.4852 21.622C47.6632 20.884 48.5812 19.228 48.5812 17.608V17.05ZM49.1932 17.05H50.9032V17.608C50.9032 19.228 51.7132 20.92 53.7472 21.766L52.7932 23.53C50.1472 22.54 49.1932 20.056 49.1932 17.608V17.05ZM54.6652 17.05H56.3752V17.608C56.3752 19.912 55.3852 22.504 52.7932 23.53L51.8032 21.766C53.8372 20.848 54.6652 19.084 54.6652 17.608V17.05ZM55.2232 17.05H57.0232V17.608C57.0232 19.336 57.9232 20.938 60.1192 21.622L58.9492 23.368C56.3032 22.468 55.2232 20.236 55.2232 17.608V17.05ZM56.2852 6.952H58.6972V16.366H56.2852V6.952ZM49.6252 7.798C52.2172 7.798 54.1432 9.454 54.1432 11.794C54.1432 14.116 52.2172 15.772 49.6252 15.772C47.0332 15.772 45.0892 14.116 45.0892 11.794C45.0892 9.454 47.0332 7.798 49.6252 7.798ZM49.6252 9.778C48.3652 9.778 47.4292 10.516 47.4292 11.794C47.4292 13.054 48.3652 13.792 49.6252 13.792C50.8852 13.792 51.8032 13.054 51.8032 11.794C51.8032 10.516 50.8852 9.778 49.6252 9.778ZM68.9378 7.24C72.6098 7.24 74.9678 8.482 74.9678 10.498C74.9678 12.514 72.6098 13.738 68.9378 13.738C65.2658 13.738 62.9078 12.514 62.9078 10.498C62.9078 8.482 65.2658 7.24 68.9378 7.24ZM68.9378 9.094C66.6518 9.094 65.3738 9.544 65.3738 10.498C65.3738 11.434 66.6518 11.902 68.9378 11.902C71.2058 11.902 72.5018 11.434 72.5018 10.498C72.5018 9.544 71.2058 9.094 68.9378 9.094ZM63.1418 17.734H74.6618V23.422H63.1418V17.734ZM72.3218 19.624H65.4998V21.532H72.3218V19.624ZM61.3958 14.692H76.4618V16.582H61.3958V14.692Z" fill="#756982"/>
</svg>
