<svg width="24" height="25" viewBox="0 0 24 25" fill="none" xmlns="http://www.w3.org/2000/svg">
<mask id="path-1-inside-1_59_757" fill="white">
<path fill-rule="evenodd" clip-rule="evenodd" d="M12 0.25C10.5272 0.25 9.33333 1.44391 9.33333 2.91667V9.58203H2.66667C1.19391 9.58203 0 10.7759 0 12.2487C0 13.7215 1.19391 14.9154 2.66667 14.9154H9.33333V21.5833C9.33333 23.0561 10.5272 24.25 12 24.25C13.4728 24.25 14.6667 23.0561 14.6667 21.5833V14.9154H21.3333C22.8061 14.9154 24 13.7215 24 12.2487C24 10.7759 22.8061 9.58203 21.3333 9.58203H14.6667V2.91667C14.6667 1.44391 13.4728 0.25 12 0.25Z"/>
</mask>
<path fill-rule="evenodd" clip-rule="evenodd" d="M12 0.25C10.5272 0.25 9.33333 1.44391 9.33333 2.91667V9.58203H2.66667C1.19391 9.58203 0 10.7759 0 12.2487C0 13.7215 1.19391 14.9154 2.66667 14.9154H9.33333V21.5833C9.33333 23.0561 10.5272 24.25 12 24.25C13.4728 24.25 14.6667 23.0561 14.6667 21.5833V14.9154H21.3333C22.8061 14.9154 24 13.7215 24 12.2487C24 10.7759 22.8061 9.58203 21.3333 9.58203H14.6667V2.91667C14.6667 1.44391 13.4728 0.25 12 0.25Z" fill="#B98CE0"/>
<path d="M9.33333 9.58203V10.582H10.3333V9.58203H9.33333ZM2.66667 14.9154L2.66667 15.9154H2.66667V14.9154ZM9.33333 14.9154H10.3333V13.9154H9.33333V14.9154ZM14.6667 14.9154V13.9154H13.6667V14.9154H14.6667ZM14.6667 9.58203H13.6667V10.582H14.6667V9.58203ZM10.3333 2.91667C10.3333 1.99619 11.0795 1.25 12 1.25V-0.75C9.97496 -0.75 8.33333 0.891623 8.33333 2.91667H10.3333ZM10.3333 9.58203V2.91667H8.33333V9.58203H10.3333ZM2.66667 10.582H9.33333V8.58203H2.66667V10.582ZM1 12.2487C1 11.3282 1.74619 10.582 2.66667 10.582V8.58203C0.641622 8.58203 -1 10.2237 -1 12.2487H1ZM2.66667 13.9154C1.74619 13.9154 1 13.1692 1 12.2487H-1C-1 14.2737 0.641622 15.9154 2.66667 15.9154L2.66667 13.9154ZM9.33333 13.9154H2.66667V15.9154H9.33333V13.9154ZM10.3333 21.5833V14.9154H8.33333V21.5833H10.3333ZM12 23.25C11.0795 23.25 10.3333 22.5038 10.3333 21.5833H8.33333C8.33333 23.6084 9.97496 25.25 12 25.25V23.25ZM13.6667 21.5833C13.6667 22.5038 12.9205 23.25 12 23.25V25.25C14.025 25.25 15.6667 23.6084 15.6667 21.5833H13.6667ZM13.6667 14.9154V21.5833H15.6667V14.9154H13.6667ZM21.3333 13.9154H14.6667V15.9154H21.3333V13.9154ZM23 12.2487C23 13.1692 22.2538 13.9154 21.3333 13.9154V15.9154C23.3584 15.9154 25 14.2737 25 12.2487H23ZM21.3333 10.582C22.2538 10.582 23 11.3282 23 12.2487H25C25 10.2237 23.3584 8.58203 21.3333 8.58203V10.582ZM14.6667 10.582H21.3333V8.58203H14.6667V10.582ZM13.6667 2.91667V9.58203H15.6667V2.91667H13.6667ZM12 1.25C12.9205 1.25 13.6667 1.99619 13.6667 2.91667H15.6667C15.6667 0.891623 14.025 -0.75 12 -0.75V1.25Z" fill="#B98CE0" mask="url(#path-1-inside-1_59_757)"/>
</svg>
