<svg width="12" height="12" viewBox="0 0 12 12" fill="none" xmlns="http://www.w3.org/2000/svg">
<circle cx="6" cy="6" r="6" fill="#B98CE0"/>
<path d="M7.82356 7.78043C8.97257 6.61956 10.4831 6.03261 11.9935 6.02609H12C10.4895 6.01304 8.97902 5.43261 7.82356 4.26522C6.65519 3.08478 6.08069 1.53913 6.08714 0L6.08069 0C6.0936 1.53913 5.51264 3.08478 4.34427 4.26522C3.15008 5.47174 1.56859 6.05217 0 6.01304L0.0193651 6.03261C1.5815 6 3.15654 6.57391 4.34427 7.78043C5.49973 8.94782 6.07423 10.4739 6.08069 12H6.08714C6.08714 10.4674 6.6681 8.9413 7.82356 7.78043Z" fill="white"/>
</svg>
