<svg width="18" height="20" viewBox="0 0 27 28" fill="none" xmlns="http://www.w3.org/2000/svg">
<path d="M10.0487 1.03278C9.52322 1.26128 9.51984 1.97594 9.48645 2.34831C9.43274 2.93602 9.4429 3.52232 9.4429 4.10816V27.2725V27.2743C9.44387 28.7267 11.2695 27.6368 12.0296 27.1098C13.1115 26.3594 13.8997 25.4068 14.5616 24.4458C14.8311 24.0546 15.0813 23.6573 15.3135 23.2549C16.7172 20.8203 17.4299 18.0665 17.4299 15.2761V14.3198C17.4299 12.591 17.1613 10.8692 16.6015 9.2283C16.5749 9.14978 16.5473 9.07126 16.5197 8.99322C15.5661 6.31889 13.9674 3.73954 11.6372 1.53445C11.4601 1.36707 11.194 1.16349 10.8935 1.04782C10.7459 0.990933 10.5896 0.9552 10.4324 0.9552C10.3046 0.9552 10.1755 0.978709 10.0492 1.03372L10.0487 1.03278Z" fill="url(#paint0_linear_1764_716)"/>
<path d="M26.7954 5.61224C25.8127 4.27602 21.4938 5.45473 16.2348 8.2687C16.2464 8.29079 16.2575 8.31336 16.2687 8.33546C16.2745 8.34769 16.2803 8.35991 16.2861 8.37213C20.5217 6.14306 23.8821 5.18203 24.6146 6.17785C25.6269 7.55451 21.2388 12.1424 14.8137 16.4266C8.38813 20.7103 2.35883 23.0673 1.34661 21.6906C0.427773 20.4419 3.95942 16.5456 9.42406 12.6337V12.52C3.06961 17.0637 -0.975886 21.7358 0.204233 23.3409C1.48935 25.089 8.48442 22.5374 15.8269 17.6415C23.1703 12.7461 28.0805 7.36033 26.7949 5.61224" fill="#B499C9"/>
<path d="M17.832 5.34611C17.3152 3.56417 16.8962 3.165 15.0247 2.67273C16.8967 2.18046 17.3157 1.78176 17.832 -0.000183105C18.3487 1.78176 18.7678 2.18093 20.6393 2.67273C18.7673 3.16547 18.3482 3.56417 17.832 5.34611Z" fill="#B499C9"/>
<path d="M4.54439 19.2175C4.11376 17.7327 3.76442 17.3999 2.20496 16.9899C3.76442 16.5799 4.11424 16.247 4.54439 14.7622C4.97502 16.247 5.32436 16.5799 6.88382 16.9899C5.32436 17.3999 4.97453 17.7327 4.54439 19.2175Z" fill="#B499C9"/>
<defs>
<linearGradient id="paint0_linear_1764_716" x1="8.91628" y1="14.534" x2="17.75" y2="14.534" gradientUnits="userSpaceOnUse">
<stop stop-color="white"/>
<stop offset="1" stop-color="#B499C9"/>
</linearGradient>
</defs>
</svg>
