<svg width="10" height="10" viewBox="0 0 10 10" fill="none" xmlns="http://www.w3.org/2000/svg">
<path fill-rule="evenodd" clip-rule="evenodd" d="M9.5 9.5C9.29289 9.70711 8.95711 9.70711 8.75 9.5L5 5.75L1.25 9.5C1.04289 9.70711 0.707107 9.70711 0.5 9.5C0.292893 9.29289 0.292893 8.95711 0.5 8.75L4.25 5L0.5 1.25C0.292893 1.04289 0.292893 0.707107 0.5 0.5C0.707107 0.292893 1.04289 0.292894 1.25 0.5L5 4.25L8.75 0.5C8.95711 0.292894 9.29289 0.292893 9.5 0.5C9.70711 0.707107 9.70711 1.04289 9.5 1.25L5.75 5L9.5 8.75C9.70711 8.95711 9.70711 9.29289 9.5 9.5Z" fill="#756982"/>
</svg>
