<svg width="27" height="28" viewBox="0 0 27 28" fill="none" xmlns="http://www.w3.org/2000/svg">
  <g clip-path="url(#clip0_1219_574)">
  <path d="M10.0489 1.03314C9.52347 1.26165 9.52008 1.9763 9.4867 2.34868C9.43299 2.93639 9.44315 3.52269 9.44315 4.10852V27.2728V27.2747C9.44412 28.7271 11.2697 27.6372 12.0298 27.1101C13.1117 26.3598 13.8999 25.4072 14.5618 24.4462C14.8313 24.055 15.0815 23.6577 15.3137 23.2552C16.7174 20.8207 17.4301 18.0669 17.4301 15.2765V14.3201C17.4301 12.5913 17.1616 10.8696 16.6018 9.22867C16.5752 9.15015 16.5476 9.07163 16.52 8.99358C15.5663 6.31926 13.9677 3.73991 11.6374 1.53482C11.4603 1.36743 11.1942 1.16385 10.8937 1.04819C10.7462 0.991299 10.5899 0.955566 10.4326 0.955566C10.3049 0.955566 10.1757 0.979075 10.0494 1.03408L10.0489 1.03314Z" fill="url(#paint0_linear_1219_574)"/>
  <path d="M26.7954 5.61273C25.8127 4.27651 21.4939 5.45522 16.2348 8.26919C16.2465 8.29128 16.2576 8.31385 16.2687 8.33595C16.2745 8.34817 16.2803 8.3604 16.2861 8.37262C20.5218 6.14355 23.8822 5.18252 24.6147 6.17834C25.6269 7.555 21.2389 12.1429 14.8138 16.4271C8.38819 20.7108 2.35889 23.0678 1.34667 21.6911C0.427834 20.4423 3.95948 16.546 9.42412 12.6342V12.5205C3.06968 17.0642 -0.975825 21.7362 0.204294 23.3414C1.48941 25.0895 8.48448 22.5379 15.827 17.642C23.1704 12.7466 28.0806 7.36082 26.795 5.61273" fill="#B499C9"/>
  <path d="M17.8322 5.34678C17.3155 3.56484 16.8964 3.16567 15.0249 2.6734C16.8969 2.18113 17.316 1.78243 17.8322 0.000488281C18.349 1.78243 18.768 2.1816 20.6395 2.6734C18.7675 3.16614 18.3485 3.56484 17.8322 5.34678Z" fill="#B499C9"/>
  <path d="M4.54451 19.218C4.11388 17.7332 3.76454 17.4003 2.20508 16.9904C3.76454 16.5804 4.11436 16.2475 4.54451 14.7627C4.97514 16.2475 5.32448 16.5804 6.88394 16.9904C5.32448 17.4003 4.97466 17.7332 4.54451 19.218Z" fill="#B499C9"/>
  </g>
  <defs>
  <linearGradient id="paint0_linear_1219_574" x1="8.91652" y1="14.5344" x2="17.7502" y2="14.5344" gradientUnits="userSpaceOnUse">
  <stop stop-color="white"/>
  <stop offset="1" stop-color="#B499C9"/>
  </linearGradient>
  <clipPath id="clip0_1219_574">
  <rect width="27" height="28" fill="white"/>
  </clipPath>
  </defs>
</svg>
