<svg width="14" height="14" viewBox="0 0 14 14" fill="currentColor" xmlns="http://www.w3.org/2000/svg">
<path fill-rule="evenodd" clip-rule="evenodd" d="M14 7C14 7.32217 13.7388 7.58333 13.4167 7.58333H7.58333V13.4167C7.58333 13.7388 7.32217 14 7 14C6.67783 14 6.41667 13.7388 6.41667 13.4167V7.58333H0.583333C0.261167 7.58333 0 7.32217 0 7C0 6.67783 0.261167 6.41667 0.583333 6.41667H6.41667V0.583333C6.41667 0.261167 6.67783 0 7 0C7.32217 0 7.58333 0.261167 7.58333 0.583333V6.41667H13.4167C13.7388 6.41667 14 6.67783 14 7Z" fill="currentColor"/>
</svg>
