<svg width="149" height="31" viewBox="0 0 149 31" fill="none" xmlns="http://www.w3.org/2000/svg">
<path d="M13 31H136C143.18 31 149 25.1797 149 18C149 10.8203 143.18 5 136 5H77L74.5 0L72 5H13C5.8203 5 0 10.8203 0 18C0 25.1797 5.8203 31 13 31Z" fill="#B98CE0"/>
<path d="M13.52 14.7068V15.9608C13.52 17.6328 14.708 19.3378 16.16 19.9538L15.654 20.6798C14.51 20.1518 13.542 19.0188 13.069 17.6658C12.618 19.1068 11.65 20.3498 10.528 20.9218L10 20.1958C11.419 19.5248 12.618 17.6658 12.618 15.9608V14.7068H10.33V13.9588H15.841V14.7068H13.52ZM17.172 12.9578H18.074V22.8138H17.172V12.9578Z" fill="white"/>
<path d="M25.8831 17.1158L25.9821 17.8638C24.3321 18.1938 22.8471 18.3038 21.3731 18.3038H20.6031V13.6728H21.4941V17.5448C22.8911 17.5338 24.3101 17.4348 25.8831 17.1158ZM22.5721 19.3928V21.8568H28.1271V22.5938H21.6701V19.3928H22.5721ZM27.7751 15.8838H29.2271V16.6428H27.7751V20.0858H26.8731V12.9578H27.7751V15.8838Z" fill="white"/>
<path d="M34.2863 17.8418V16.0598H31.6243V17.8418H34.2863ZM35.1773 16.4668V18.5678H30.7333V13.6068H31.6243V15.3448H34.2863V13.6068H35.1773V15.7298H37.4543V12.9468H38.3673V20.2508H37.4543V16.4668H35.1773ZM32.9223 21.8568H38.5983V22.5938H32.0203V19.5358H32.9223V21.8568Z" fill="white"/>
<path d="M48.1318 20.8558H52.1688V21.5928H43.2038V20.8558H47.2188V18.9968H44.3258V15.9498H50.1778V14.4098H44.3038V13.6728H51.0578V16.6758H45.2168V18.2708H51.2888V18.9968H48.1318V20.8558Z" fill="white"/>
<path d="M60.176 14.9818V14.7288H54.302V13.9918H61.067V14.9818C61.067 16.2358 61.067 17.6548 60.682 19.7888L59.78 19.6898C60.176 17.6768 60.176 16.2028 60.176 14.9818ZM53.345 20.6248H62.266V21.3728H53.345V20.6248Z" fill="white"/>
<path d="M71.5491 12.9578V20.1628H70.6471V12.9578H71.5491ZM64.5641 16.0598C64.5641 17.0388 65.2901 17.7208 66.2471 17.7208C67.2261 17.7208 67.9521 17.0388 67.9521 16.0598C67.9521 15.1028 67.2261 14.4208 66.2471 14.4208C65.2901 14.4208 64.5641 15.1028 64.5641 16.0598ZM68.8321 16.0598C68.8321 17.4898 67.7211 18.5018 66.2471 18.5018C64.7841 18.5018 63.6841 17.4898 63.6841 16.0598C63.6841 14.6408 64.7841 13.6398 66.2471 13.6398C67.7211 13.6398 68.8321 14.6408 68.8321 16.0598ZM66.1041 21.8568H71.8461V22.5938H65.2021V19.4258H66.1041V21.8568Z" fill="white"/>
<path d="M74.6943 14.9268V19.4808C75.0573 19.4698 75.5303 19.4258 76.0363 19.3048L76.1243 20.0528C75.3103 20.2398 74.6723 20.2398 74.2653 20.2398H73.8693V14.1898H75.9813V14.9268H74.6943ZM77.2243 14.9268V19.4918C77.6753 19.4698 78.2143 19.4258 78.7863 19.2718L78.8633 20.0198C78.0493 20.2288 77.3783 20.2398 76.8063 20.2398H76.3993V14.1898H78.5773V14.9268H77.2243ZM81.2173 12.9468H82.0753V22.8028H81.2173V17.7098H80.0623V22.3188H79.2263V13.1668H80.0623V16.9728H81.2173V12.9468Z" fill="white"/>
<path d="M89.8598 13.8048V15.5758C89.8598 17.3138 90.9818 19.1068 92.3678 19.7998L91.8068 20.5148C90.7618 19.9538 89.8708 18.7988 89.4198 17.4458C88.9908 18.8868 88.0778 20.1188 86.9668 20.7128L86.4278 19.9868C87.8468 19.2608 88.9688 17.3688 88.9688 15.5758V13.8048H89.8598ZM95.7668 16.9508V17.6988H94.1388V22.8138H93.2368V12.9578H94.1388V16.9508H95.7668Z" fill="white"/>
<path d="M101.123 22.1098C102.663 22.1098 103.587 21.7248 103.587 21.0538C103.587 20.3828 102.663 19.9978 101.123 19.9978C99.572 19.9978 98.659 20.3828 98.659 21.0538C98.659 21.7248 99.572 22.1098 101.123 22.1098ZM101.123 19.2938C103.246 19.2938 104.5 19.9208 104.5 21.0538C104.5 22.1868 103.246 22.8028 101.123 22.8028C99.011 22.8028 97.746 22.1868 97.746 21.0538C97.746 19.9208 99.011 19.2938 101.123 19.2938ZM99.759 16.6758V17.8308H102.498V16.6758C102.091 16.7418 101.629 16.7858 101.123 16.7858C100.628 16.7858 100.166 16.7418 99.759 16.6758ZM98.582 14.9598C98.582 15.6638 99.55 16.0928 101.123 16.0928C102.696 16.0928 103.664 15.6638 103.664 14.9598C103.664 14.2448 102.696 13.8268 101.123 13.8268C99.55 13.8268 98.582 14.2448 98.582 14.9598ZM103.389 17.8308H105.589V18.5568H96.657V17.8308H98.868V16.4448C98.087 16.1258 97.658 15.6308 97.658 14.9598C97.658 13.8048 98.989 13.1228 101.123 13.1228C103.268 13.1228 104.588 13.8048 104.588 14.9598C104.588 15.6198 104.148 16.1258 103.389 16.4338V17.8308Z" fill="white"/>
<path d="M113.002 16.4008V18.9088H112.155V13.1008H113.002V15.6638H114.245V12.9578H115.114V19.0628H114.245V16.4008H113.002ZM111.748 14.0798L111.737 14.7948H106.732V14.0798H108.8V13.0018H109.691V14.0798H111.748ZM109.251 15.9608C108.47 15.9608 107.953 16.3678 107.953 16.9838C107.953 17.5998 108.47 17.9958 109.251 17.9958C110.021 17.9958 110.549 17.5998 110.549 16.9838C110.549 16.3678 110.021 15.9608 109.251 15.9608ZM109.251 18.6668C108.008 18.6668 107.139 17.9958 107.139 16.9838C107.139 15.9608 108.008 15.2898 109.251 15.2898C110.494 15.2898 111.352 15.9608 111.352 16.9838C111.352 17.9958 110.494 18.6668 109.251 18.6668ZM113.904 19.3488V19.6898C113.904 20.6578 114.641 21.6258 115.884 22.0218L115.466 22.6928C114.476 22.3518 113.783 21.7028 113.453 20.8998C113.156 21.6808 112.562 22.4068 111.649 22.7808C110.703 22.4288 110.12 21.7358 109.823 20.9328C109.46 21.7028 108.778 22.3518 107.832 22.6928L107.414 22.0218C108.646 21.6038 109.394 20.5918 109.394 19.6898V19.3488H110.263V19.6898C110.263 20.5258 110.714 21.4058 111.627 21.9118C112.551 21.3618 113.013 20.4158 113.013 19.6898V19.3488H113.904Z" fill="white"/>
<path d="M119.546 19.7888C120.481 19.7888 121.141 18.7548 121.141 17.1488C121.141 15.5538 120.481 14.5198 119.546 14.5198C118.6 14.5198 117.94 15.5538 117.94 17.1488C117.94 18.7548 118.6 19.7888 119.546 19.7888ZM124.133 12.9468H125.035V22.8358H124.133V17.4458H121.988C121.9 19.3818 120.921 20.5918 119.546 20.5918C118.105 20.5918 117.082 19.2498 117.082 17.1488C117.082 15.0478 118.105 13.7058 119.546 13.7058C120.877 13.7058 121.845 14.8608 121.988 16.7088H124.133V12.9468Z" fill="white"/>
<path d="M130.116 18.4798V20.8008H132.866V18.4798C132.448 18.5788 131.975 18.6338 131.48 18.6338C130.996 18.6338 130.523 18.5788 130.116 18.4798ZM131.48 14.2778C129.896 14.2778 128.763 15.0038 128.763 16.1038C128.763 17.2038 129.896 17.9298 131.48 17.9298C133.064 17.9298 134.208 17.2038 134.208 16.1038C134.208 15.0038 133.064 14.2778 131.48 14.2778ZM133.768 20.8008H135.979V21.5488H127.014V20.8008H129.214V18.1388C128.389 17.7098 127.894 16.9948 127.894 16.1038C127.894 14.5638 129.39 13.5738 131.48 13.5738C133.581 13.5738 135.066 14.5638 135.066 16.1038C135.066 16.9948 134.582 17.6988 133.768 18.1278V20.8008Z" fill="white"/>
<path d="M138.025 20.0308H137.673L137.607 14.1458H138.091L138.025 20.0308ZM137.464 21.6808C137.464 21.5561 137.493 21.4534 137.552 21.3728C137.61 21.2921 137.702 21.2518 137.827 21.2518C137.966 21.2518 138.061 21.2921 138.113 21.3728C138.171 21.4534 138.201 21.5561 138.201 21.6808C138.201 21.8054 138.171 21.9081 138.113 21.9888C138.061 22.0621 137.966 22.0988 137.827 22.0988C137.702 22.0988 137.61 22.0621 137.552 21.9888C137.493 21.9081 137.464 21.8054 137.464 21.6808Z" fill="white"/>
</svg>
