<svg width="69" height="30" viewBox="0 0 69 30" fill="none" xmlns="http://www.w3.org/2000/svg">
<path d="M13 30H56C63.1797 30 69 24.3675 69 17.4194C69 10.4713 63.1797 4.83871 56 4.83871H37L34.5 0L32 4.83871H13C5.8203 4.83871 0 10.4713 0 17.4194C0 24.3675 5.8203 30 13 30Z" fill="#B98CE0"/>
<path d="M11.8602 18.172H12.7842V20.328H11.8602V18.172ZM11.8602 14.674H12.5972V14.894C12.5972 16.632 11.4642 17.974 9.79217 18.502L9.37417 17.787C10.8482 17.347 11.8602 16.236 11.8602 14.894V14.674ZM12.0362 14.674H12.7732V14.894C12.7732 16.181 13.8182 17.259 15.2812 17.688L14.8632 18.392C13.1912 17.897 12.0362 16.577 12.0362 14.894V14.674ZM9.60517 14.212H15.0722V14.949H9.60517V14.212ZM11.8602 12.98H12.7842V14.531H11.8602V12.98ZM16.2052 12.903H17.1182V22.869H16.2052V12.903ZM9.19817 20.823L9.06617 20.053C10.8812 20.053 13.3892 20.042 15.5562 19.712L15.6332 20.383C13.4002 20.801 10.9692 20.812 9.19817 20.823ZM20.2853 13.497H26.6323V14.245H20.2853V13.497ZM19.1413 17.479H28.1503V18.238H19.1413V17.479ZM26.0933 13.497H26.9843V14.278C26.9843 15.191 26.9843 16.28 26.6653 17.798L25.7743 17.699C26.0933 16.225 26.0933 15.169 26.0933 14.278V13.497ZM20.3183 21.879H27.2813V22.638H20.3183V21.879ZM20.3183 19.338H21.2313V21.989H20.3183V19.338ZM31.7204 20.878H40.7294V21.637H31.7204V20.878ZM35.7464 18.744H36.6594V21.197H35.7464V18.744ZM32.8094 13.651H39.6184V16.665H33.7444V18.656H32.8424V15.928H38.7164V14.388H32.8094V13.651ZM32.8424 18.271H39.8494V19.019H32.8424V18.271ZM42.8076 13.97H49.2096V14.707H42.8076V13.97ZM41.8396 20.647H50.8266V21.406H41.8396V20.647ZM48.7256 13.97H49.6166V14.96C49.6166 16.236 49.6166 17.655 49.2426 19.8L48.3296 19.712C48.7256 17.677 48.7256 16.192 48.7256 14.96V13.97ZM59.1857 12.925H60.1097V20.185H59.1857V12.925ZM53.7187 21.89H60.4067V22.638H53.7187V21.89ZM53.7187 19.437H54.6207V22.143H53.7187V19.437ZM54.7747 13.607C56.2597 13.607 57.3597 14.619 57.3597 16.06C57.3597 17.49 56.2597 18.513 54.7747 18.513C53.2897 18.513 52.1787 17.49 52.1787 16.06C52.1787 14.619 53.2897 13.607 54.7747 13.607ZM54.7747 14.399C53.8067 14.399 53.0697 15.081 53.0697 16.06C53.0697 17.028 53.8067 17.71 54.7747 17.71C55.7427 17.71 56.4797 17.028 56.4797 16.06C56.4797 15.081 55.7427 14.399 54.7747 14.399Z" fill="white"/>
</svg>
