<svg width="109" height="30" viewBox="0 0 109 30" fill="none" xmlns="http://www.w3.org/2000/svg">
<path d="M13 30H96C103.18 30 109 24.3675 109 17.4194C109 10.4713 103.18 4.83871 96 4.83871H57L54.5 0L52 4.83871H13C5.8203 4.83871 0 10.4713 0 17.4194C0 24.3675 5.8203 30 13 30Z" fill="#B98CE0"/>
<path d="M10.3919 18.172H11.3159V20.328H10.3919V18.172ZM10.3919 14.674H11.1289V14.894C11.1289 16.632 9.99591 17.974 8.32391 18.502L7.90591 17.787C9.37991 17.347 10.3919 16.236 10.3919 14.894V14.674ZM10.5679 14.674H11.3049V14.894C11.3049 16.181 12.3499 17.259 13.8129 17.688L13.3949 18.392C11.7229 17.897 10.5679 16.577 10.5679 14.894V14.674ZM8.13691 14.212H13.6039V14.949H8.13691V14.212ZM10.3919 12.98H11.3159V14.531H10.3919V12.98ZM14.7369 12.903H15.6499V22.869H14.7369V12.903ZM7.72991 20.823L7.59791 20.053C9.41291 20.053 11.9209 20.042 14.0879 19.712L14.1649 20.383C11.9319 20.801 9.50091 20.812 7.72991 20.823ZM18.817 13.497H25.164V14.245H18.817V13.497ZM17.673 17.479H26.682V18.238H17.673V17.479ZM24.625 13.497H25.516V14.278C25.516 15.191 25.516 16.28 25.197 17.798L24.306 17.699C24.625 16.225 24.625 15.169 24.625 14.278V13.497ZM18.85 21.879H25.813V22.638H18.85V21.879ZM18.85 19.338H19.763V21.989H18.85V19.338ZM31.8182 16.775H33.6992V17.534H31.8182V16.775ZM35.3602 12.914H36.2402V22.858H35.3602V12.914ZM33.3912 13.123H34.2602V22.363H33.3912V13.123ZM30.0252 13.739C31.3122 13.739 32.1482 15.07 32.1482 17.204C32.1482 19.338 31.3122 20.669 30.0252 20.669C28.7382 20.669 27.9132 19.338 27.9132 17.204C27.9132 15.07 28.7382 13.739 30.0252 13.739ZM30.0252 14.586C29.2442 14.586 28.7492 15.598 28.7492 17.204C28.7492 18.81 29.2442 19.822 30.0252 19.822C30.8172 19.822 31.3122 18.81 31.3122 17.204C31.3122 15.598 30.8172 14.586 30.0252 14.586ZM42.8023 13.772H43.5503V15.554C43.5503 17.754 42.3623 19.899 40.7893 20.735L40.2283 20.009C41.6693 19.283 42.8023 17.369 42.8023 15.554V13.772ZM42.9673 13.772H43.7043V15.554C43.7043 17.303 44.8153 19.118 46.2233 19.822L45.6623 20.548C44.1223 19.723 42.9673 17.688 42.9673 15.554V13.772ZM47.0923 12.914H48.0163V22.858H47.0923V12.914ZM47.7963 16.94H49.6443V17.71H47.7963V16.94ZM52.7014 16.28H53.6034V18.161H52.7014V16.28ZM56.3534 16.28H57.2554V18.161H56.3534V16.28ZM50.4794 17.831H59.4664V18.568H50.4794V17.831ZM54.9674 19.316C57.1014 19.316 58.3774 19.943 58.3774 21.076C58.3774 22.209 57.1014 22.847 54.9674 22.847C52.8334 22.847 51.5574 22.209 51.5574 21.076C51.5574 19.943 52.8334 19.316 54.9674 19.316ZM54.9674 20.02C53.4164 20.02 52.4814 20.405 52.4814 21.076C52.4814 21.758 53.4164 22.132 54.9674 22.132C56.5294 22.132 57.4534 21.758 57.4534 21.076C57.4534 20.405 56.5294 20.02 54.9674 20.02ZM54.9784 13.09C57.1344 13.09 58.4764 13.783 58.4764 14.949C58.4764 16.104 57.1344 16.786 54.9784 16.786C52.8114 16.786 51.4804 16.104 51.4804 14.949C51.4804 13.783 52.8114 13.09 54.9784 13.09ZM54.9784 13.805C53.3944 13.805 52.4154 14.223 52.4154 14.949C52.4154 15.664 53.3944 16.082 54.9784 16.082C56.5624 16.082 57.5414 15.664 57.5414 14.949C57.5414 14.223 56.5624 13.805 54.9784 13.805ZM67.4076 12.925H68.3206V20.383H67.4076V12.925ZM68.0346 16.181H69.7946V16.951H68.0346V16.181ZM60.6316 14.124H66.5056V14.861H60.6316V14.124ZM63.5686 15.411C64.9766 15.411 65.9446 16.148 65.9446 17.27C65.9446 18.381 64.9766 19.118 63.5686 19.118C62.1496 19.118 61.1816 18.381 61.1816 17.27C61.1816 16.148 62.1496 15.411 63.5686 15.411ZM63.5686 16.126C62.6666 16.126 62.0506 16.577 62.0506 17.27C62.0506 17.952 62.6666 18.403 63.5686 18.403C64.4596 18.403 65.0756 17.952 65.0756 17.27C65.0756 16.577 64.4596 16.126 63.5686 16.126ZM63.1066 12.914H64.0196V14.509H63.1066V12.914ZM62.1276 21.89H68.7716V22.638H62.1276V21.89ZM62.1276 19.789H63.0406V22.209H62.1276V19.789ZM73.1887 20.878H82.1977V21.637H73.1887V20.878ZM77.2147 18.744H78.1277V21.197H77.2147V18.744ZM74.2777 13.651H81.0867V16.665H75.2127V18.656H74.3107V15.928H80.1847V14.388H74.2777V13.651ZM74.3107 18.271H81.3177V19.019H74.3107V18.271ZM84.2758 13.97H90.6778V14.707H84.2758V13.97ZM83.3078 20.647H92.2948V21.406H83.3078V20.647ZM90.1938 13.97H91.0848V14.96C91.0848 16.236 91.0848 17.655 90.7108 19.8L89.7978 19.712C90.1938 17.677 90.1938 16.192 90.1938 14.96V13.97ZM100.654 12.925H101.578V20.185H100.654V12.925ZM95.187 21.89H101.875V22.638H95.187V21.89ZM95.187 19.437H96.089V22.143H95.187V19.437ZM96.243 13.607C97.728 13.607 98.828 14.619 98.828 16.06C98.828 17.49 97.728 18.513 96.243 18.513C94.758 18.513 93.647 17.49 93.647 16.06C93.647 14.619 94.758 13.607 96.243 13.607ZM96.243 14.399C95.275 14.399 94.538 15.081 94.538 16.06C94.538 17.028 95.275 17.71 96.243 17.71C97.211 17.71 97.948 17.028 97.948 16.06C97.948 15.081 97.211 14.399 96.243 14.399Z" fill="white"/>
</svg>
